<svg width="180" height="38" viewBox="0 0 180 38" fill="none" xmlns="http://www.w3.org/2000/svg">
<path d="M10.707 11.5957C11.5742 11.5957 12.4355 11.6602 13.291 11.7891C14.1465 11.918 14.9668 12.1289 15.752 12.4219C16.5371 12.7148 17.2637 13.0957 17.9316 13.5645C18.5996 14.0332 19.1797 14.6133 19.6719 15.3047C20.1641 15.9961 20.5508 16.8047 20.832 17.7305C21.1133 18.6445 21.2539 19.6992 21.2539 20.8945C21.2539 22.3711 21.043 23.6484 20.6211 24.7266C20.1992 25.793 19.6367 26.6895 18.9336 27.416C18.2305 28.1426 17.416 28.7168 16.4902 29.1387C15.5645 29.5488 14.5918 29.8359 13.5723 30V34.7812C13.5723 35.2031 13.5371 35.5664 13.4668 35.8711C13.3965 36.1758 13.2676 36.4277 13.0801 36.627C12.9043 36.8379 12.6465 36.9902 12.3066 37.084C11.9785 37.1895 11.5508 37.2422 11.0234 37.2422H3.32422C2.76172 37.2422 2.30469 37.1895 1.95312 37.084C1.60156 36.9785 1.32617 36.8203 1.12695 36.6094C0.927734 36.4102 0.792969 36.1582 0.722656 35.8535C0.652344 35.5488 0.617188 35.1914 0.617188 34.7812V20.7188C0.617188 19.2656 0.839844 17.9707 1.28516 16.834C1.74219 15.6973 2.39844 14.7422 3.25391 13.9688C4.12109 13.1953 5.17578 12.6094 6.41797 12.2109C7.67188 11.8008 9.10156 11.5957 10.707 11.5957ZM18.7578 20.877C18.7578 19.9746 18.6582 19.1367 18.459 18.3633C18.2598 17.5898 17.9492 16.9043 17.5273 16.3066C17.1055 15.709 16.5664 15.2227 15.9102 14.8477C15.2656 14.4609 14.4863 14.2148 13.5723 14.1094V27.75C14.4863 27.6328 15.2656 27.3809 15.9102 26.9941C16.5664 26.6074 17.1055 26.1094 17.5273 25.5C17.9492 24.8906 18.2598 24.1934 18.459 23.4082C18.6582 22.623 18.7578 21.7793 18.7578 20.877ZM33.9805 30.6152C33.1016 30.6152 32.2227 30.5449 31.3438 30.4043C30.4648 30.2637 29.6211 30.041 28.8125 29.7363C28.0156 29.4316 27.2715 29.0332 26.5801 28.541C25.8887 28.0488 25.2852 27.4453 24.7695 26.7305C24.2656 26.0156 23.8672 25.1895 23.5742 24.252C23.2812 23.3027 23.1348 22.2188 23.1348 21C23.1348 19.8047 23.2812 18.7383 23.5742 17.8008C23.8672 16.8516 24.2656 16.0195 24.7695 15.3047C25.2852 14.5898 25.8887 13.9863 26.5801 13.4941C27.2715 12.9902 28.0156 12.5859 28.8125 12.2812C29.6211 11.9648 30.4648 11.7363 31.3438 11.5957C32.2227 11.4551 33.1016 11.3848 33.9805 11.3848C34.7891 11.3848 35.6152 11.4375 36.459 11.543C37.3145 11.6367 38.1406 11.8184 38.9375 12.0879C39.7461 12.3457 40.502 12.7031 41.2051 13.1602C41.9199 13.6055 42.541 14.1797 43.0684 14.8828C43.6074 15.5859 44.0293 16.4297 44.334 17.4141C44.6504 18.3867 44.8086 19.5352 44.8086 20.8594C44.8086 22.2188 44.6562 23.4082 44.3516 24.4277C44.0469 25.4355 43.625 26.3027 43.0859 27.0293C42.5586 27.7441 41.9434 28.3359 41.2402 28.8047C40.5371 29.2734 39.7812 29.6426 38.9727 29.9121C38.1758 30.1699 37.3496 30.3516 36.4941 30.457C35.6387 30.5625 34.8008 30.6152 33.9805 30.6152ZM39.377 26.3965C39.7402 26.3965 40.0977 26.3203 40.4492 26.168C40.8125 26.0039 41.1289 25.7168 41.3984 25.3066C41.6797 24.8965 41.9023 24.334 42.0664 23.6191C42.2422 22.8926 42.3301 21.9727 42.3301 20.8594C42.3301 19.8047 42.2422 18.9375 42.0664 18.2578C41.9023 17.5781 41.6797 17.0449 41.3984 16.6582C41.1172 16.2598 40.8008 15.9844 40.4492 15.832C40.0977 15.6797 39.7402 15.6035 39.377 15.6035C39.0957 15.6035 38.7793 15.6621 38.4277 15.7793C38.0879 15.8965 37.7656 16.1484 37.4609 16.5352C37.168 16.9102 36.9219 17.4551 36.7227 18.1699C36.5234 18.873 36.4238 19.8164 36.4238 21C36.4238 22.1836 36.5059 23.1328 36.6699 23.8477C36.834 24.5625 37.0508 25.1074 37.3203 25.4824C37.5898 25.8574 37.9004 26.1035 38.252 26.2207C38.6152 26.3379 38.9902 26.3965 39.377 26.3965ZM70.3145 20.5957L72.8281 13.002C72.875 12.8613 72.9219 12.7324 72.9688 12.6152C73.0156 12.4863 73.0801 12.3809 73.1621 12.2988C73.2441 12.2051 73.3555 12.1348 73.4961 12.0879C73.6367 12.0293 73.8242 12 74.0586 12H75.957C76.1914 12 76.3555 12.041 76.4492 12.123C76.543 12.2051 76.5898 12.3105 76.5898 12.4395C76.5898 12.5684 76.5488 12.7324 76.4668 12.9316L70.0508 28.3477C69.8281 28.8867 69.5879 29.2969 69.3301 29.5781C69.0723 29.8594 68.7266 30 68.293 30H65.4805C65.2227 30 64.9941 29.9473 64.7949 29.8418C64.6074 29.7363 64.4434 29.6016 64.3027 29.4375C64.1621 29.2734 64.0449 29.0977 63.9512 28.9102C63.8574 28.7227 63.7812 28.5469 63.7227 28.3828L61.1738 21.5625L58.3613 28.3477C58.1387 28.8867 57.8984 29.2969 57.6406 29.5781C57.3828 29.8594 57.0312 30 56.5859 30H53.791C53.5215 30 53.293 29.9473 53.1055 29.8418C52.918 29.7363 52.7539 29.6016 52.6133 29.4375C52.4727 29.2734 52.3555 29.0977 52.2617 28.9102C52.168 28.7227 52.0859 28.5469 52.0156 28.3828L46.0742 13.4414C45.9805 13.2188 45.9336 13.0137 45.9336 12.8262C45.9336 12.5215 46.0332 12.3105 46.2324 12.1934C46.4316 12.0645 46.6426 12 46.8652 12H53.8262C54.1191 12 54.3652 12.0176 54.5645 12.0527C54.7754 12.0879 54.9512 12.1465 55.0918 12.2285C55.2441 12.3105 55.3672 12.4219 55.4609 12.5625C55.5547 12.6914 55.6426 12.8613 55.7246 13.0723L58.6074 20.5957L59.6445 17.4492L58.1504 13.4414C58.0566 13.1836 58.0098 12.9727 58.0098 12.8086C58.0098 12.5039 58.1035 12.293 58.291 12.1758C58.4902 12.0586 58.707 12 58.9414 12H65.8848C66.4707 12 66.8984 12.0762 67.168 12.2285C67.4375 12.3691 67.6426 12.6504 67.7832 13.0723L70.3145 20.5957ZM94.3086 27.082C94.625 27.082 94.9121 27.041 95.1699 26.959C95.4277 26.8652 95.6562 26.7656 95.8555 26.6602C96.0664 26.5547 96.2363 26.4609 96.3652 26.3789C96.5059 26.2852 96.6113 26.2383 96.6816 26.2383C96.7871 26.2383 96.8574 26.2559 96.8926 26.291C96.9395 26.3262 96.9922 26.3906 97.0508 26.4844L97.666 27.4336C97.7246 27.5273 97.7539 27.6094 97.7539 27.6797C97.7539 27.7617 97.7305 27.8262 97.6836 27.873C97.6367 27.9199 97.5898 27.9609 97.543 27.9961C97.1562 28.2656 96.6816 28.5586 96.1191 28.875C95.5566 29.1797 94.9004 29.4609 94.1504 29.7188C93.4121 29.9766 92.5742 30.1875 91.6367 30.3516C90.6992 30.5273 89.668 30.6152 88.543 30.6152C87.6641 30.6152 86.7852 30.5449 85.9062 30.4043C85.0273 30.2637 84.1836 30.041 83.375 29.7363C82.5781 29.4316 81.834 29.0332 81.1426 28.541C80.4512 28.0488 79.8477 27.4453 79.332 26.7305C78.8281 26.0156 78.4297 25.1895 78.1367 24.252C77.8438 23.3027 77.6973 22.2188 77.6973 21C77.6973 19.8047 77.8438 18.7383 78.1367 17.8008C78.4297 16.8516 78.8281 16.0195 79.332 15.3047C79.8477 14.5898 80.4512 13.9863 81.1426 13.4941C81.834 12.9902 82.5781 12.5859 83.375 12.2812C84.1836 11.9648 85.0273 11.7363 85.9062 11.5957C86.7852 11.4551 87.6641 11.3848 88.543 11.3848C90.0078 11.3848 91.3672 11.5488 92.6211 11.877C93.8867 12.2051 94.9824 12.7441 95.9082 13.4941C96.834 14.2441 97.5605 15.2285 98.0879 16.4473C98.6152 17.666 98.8789 19.1602 98.8789 20.9297V21.9141C98.8789 22.125 98.8262 22.2891 98.7207 22.4062C98.6152 22.5234 98.4395 22.582 98.1934 22.582H90.916C91.0098 23.4492 91.1738 24.1758 91.4082 24.7617C91.6543 25.3359 91.9297 25.7988 92.2344 26.1504C92.5508 26.4902 92.8906 26.7305 93.2539 26.8711C93.6172 27.0117 93.9688 27.082 94.3086 27.082ZM96.3828 20.4199C96.3828 19.4824 96.3066 18.709 96.1543 18.0996C96.0137 17.4785 95.8203 16.9863 95.5742 16.623C95.3281 16.248 95.0352 15.9844 94.6953 15.832C94.3672 15.6797 94.0215 15.6035 93.6582 15.6035C93.3887 15.6035 93.0957 15.6562 92.7793 15.7617C92.4629 15.8672 92.1641 16.0898 91.8828 16.4297C91.6133 16.7695 91.3789 17.2559 91.1797 17.8887C90.9922 18.5215 90.8809 19.3652 90.8457 20.4199H96.3828ZM101.445 14.4434C101.445 14.0449 101.48 13.6934 101.551 13.3887C101.621 13.0723 101.756 12.8145 101.955 12.6152C102.154 12.416 102.43 12.2637 102.781 12.1582C103.133 12.0527 103.59 12 104.152 12H111.852C112.391 12 112.824 12.0527 113.152 12.1582C113.48 12.2637 113.738 12.4219 113.926 12.6328C114.113 12.8438 114.236 13.1074 114.295 13.4238C114.365 13.7402 114.4 14.1094 114.4 14.5312V15.832L118.303 12.0352C118.561 11.7891 118.801 11.666 119.023 11.666C119.152 11.666 119.264 11.6953 119.357 11.7539C119.463 11.8008 119.551 11.8594 119.621 11.9297L120.412 12.7559C120.588 12.9316 120.676 13.125 120.676 13.3359C120.676 13.4648 120.635 13.5996 120.553 13.7402C120.482 13.8691 120.365 13.998 120.201 14.127L114.4 18.627V27.5215C114.4 27.9316 114.371 28.2949 114.312 28.6113C114.254 28.916 114.125 29.1738 113.926 29.3848C113.727 29.584 113.439 29.7363 113.064 29.8418C112.689 29.9473 112.18 30 111.535 30H104.152C103.59 30 103.133 29.9473 102.781 29.8418C102.43 29.7363 102.154 29.584 101.955 29.3848C101.756 29.1855 101.621 28.9336 101.551 28.6289C101.48 28.3242 101.445 27.9668 101.445 27.5566V14.4434ZM131.152 30.6152C130.273 30.6152 129.395 30.5449 128.516 30.4043C127.637 30.2637 126.793 30.041 125.984 29.7363C125.188 29.4316 124.443 29.0332 123.752 28.541C123.061 28.0488 122.457 27.4453 121.941 26.7305C121.438 26.0156 121.039 25.1895 120.746 24.252C120.453 23.3027 120.307 22.2188 120.307 21C120.307 19.8047 120.453 18.7383 120.746 17.8008C121.039 16.8516 121.438 16.0195 121.941 15.3047C122.457 14.5898 123.061 13.9863 123.752 13.4941C124.443 12.9902 125.188 12.5859 125.984 12.2812C126.793 11.9648 127.637 11.7363 128.516 11.5957C129.395 11.4551 130.273 11.3848 131.152 11.3848C131.961 11.3848 132.787 11.4375 133.631 11.543C134.486 11.6367 135.312 11.8184 136.109 12.0879C136.918 12.3457 137.674 12.7031 138.377 13.1602C139.092 13.6055 139.713 14.1797 140.24 14.8828C140.779 15.5859 141.201 16.4297 141.506 17.4141C141.822 18.3867 141.98 19.5352 141.98 20.8594C141.98 22.2188 141.828 23.4082 141.523 24.4277C141.219 25.4355 140.797 26.3027 140.258 27.0293C139.73 27.7441 139.115 28.3359 138.412 28.8047C137.709 29.2734 136.953 29.6426 136.145 29.9121C135.348 30.1699 134.521 30.3516 133.666 30.457C132.811 30.5625 131.973 30.6152 131.152 30.6152ZM136.549 26.3965C136.912 26.3965 137.27 26.3203 137.621 26.168C137.984 26.0039 138.301 25.7168 138.57 25.3066C138.852 24.8965 139.074 24.334 139.238 23.6191C139.414 22.8926 139.502 21.9727 139.502 20.8594C139.502 19.8047 139.414 18.9375 139.238 18.2578C139.074 17.5781 138.852 17.0449 138.57 16.6582C138.289 16.2598 137.973 15.9844 137.621 15.832C137.27 15.6797 136.912 15.6035 136.549 15.6035C136.268 15.6035 135.951 15.6621 135.6 15.7793C135.26 15.8965 134.938 16.1484 134.633 16.5352C134.34 16.9102 134.094 17.4551 133.895 18.1699C133.695 18.873 133.596 19.8164 133.596 21C133.596 22.1836 133.678 23.1328 133.842 23.8477C134.006 24.5625 134.223 25.1074 134.492 25.4824C134.762 25.8574 135.072 26.1035 135.424 26.2207C135.787 26.3379 136.162 26.3965 136.549 26.3965ZM158.275 22.6875V27.5391C158.275 27.9609 158.246 28.3301 158.188 28.6465C158.129 28.9512 158.006 29.2031 157.818 29.4023C157.631 29.6016 157.361 29.7539 157.01 29.8594C156.67 29.9531 156.213 30 155.639 30H148.01C147.447 30 146.99 29.9473 146.639 29.8418C146.287 29.7363 146.012 29.584 145.812 29.3848C145.613 29.1855 145.479 28.9336 145.408 28.6289C145.338 28.3242 145.303 27.9668 145.303 27.5566V22.6875H143.844C143.598 22.6875 143.475 22.5586 143.475 22.3008V20.8945C143.475 20.6484 143.598 20.5254 143.844 20.5254H145.303V9.9082C145.303 8.64258 145.432 7.54102 145.689 6.60352C145.959 5.66602 146.316 4.86328 146.762 4.19531C147.219 3.51562 147.752 2.95898 148.361 2.52539C148.971 2.0918 149.627 1.75195 150.33 1.50586C151.033 1.24805 151.76 1.07227 152.51 0.978516C153.271 0.884766 154.027 0.837891 154.777 0.837891C155.422 0.837891 156.096 0.878906 156.799 0.960938C157.514 1.04297 158.199 1.1543 158.855 1.29492C159.523 1.42383 160.145 1.58203 160.719 1.76953C161.293 1.94531 161.779 2.12695 162.178 2.31445C162.271 2.36133 162.371 2.43164 162.477 2.52539C162.582 2.61914 162.635 2.7832 162.635 3.01758V4.24805C162.635 4.40039 162.605 4.49414 162.547 4.5293C162.488 4.55273 162.436 4.56445 162.389 4.56445C162.236 4.56445 162.072 4.5293 161.896 4.45898C161.721 4.38867 161.457 4.35352 161.105 4.35352C160.719 4.35352 160.35 4.43555 159.998 4.59961C159.658 4.75195 159.359 5.02734 159.102 5.42578C158.844 5.82422 158.639 6.36328 158.486 7.04297C158.346 7.72266 158.275 8.57812 158.275 9.60938V20.5254H161.791C162.037 20.5254 162.16 20.6484 162.16 20.8945V22.3008C162.16 22.5586 162.037 22.6875 161.791 22.6875H158.275ZM165.922 24.4453C165.84 24.3633 165.805 24.2812 165.816 24.1992C165.828 24.1055 165.869 24.0176 165.939 23.9355L171.002 18.293H165.131C164.85 18.293 164.627 18.2637 164.463 18.2051C164.311 18.1348 164.193 18.0469 164.111 17.9414C164.041 17.8359 163.994 17.7188 163.971 17.5898C163.959 17.4609 163.953 17.3379 163.953 17.2207V12.8613C163.953 12.6504 164.041 12.457 164.217 12.2812C164.404 12.0938 164.697 12 165.096 12H177.594C177.957 12 178.232 12.0762 178.42 12.2285C178.619 12.3809 178.742 12.5684 178.789 12.791C178.836 13.0137 178.818 13.2598 178.736 13.5293C178.654 13.7871 178.514 14.0215 178.314 14.2324L171.371 21.6152C172.484 21.627 173.533 21.791 174.518 22.1074C175.514 22.4238 176.381 22.8926 177.119 23.5137C177.869 24.1348 178.461 24.9082 178.895 25.834C179.328 26.7598 179.545 27.8379 179.545 29.0684C179.545 30.252 179.287 31.3301 178.771 32.3027C178.256 33.2754 177.547 34.1074 176.645 34.7988C175.754 35.502 174.699 36.0469 173.48 36.4336C172.273 36.8203 170.967 37.0137 169.561 37.0137C169.08 37.0137 168.576 36.9902 168.049 36.9434C167.533 36.8965 167.006 36.8203 166.467 36.7148C165.939 36.6211 165.406 36.498 164.867 36.3457C164.328 36.2051 163.812 36.0352 163.32 35.8359C163.238 35.8008 163.168 35.748 163.109 35.6777C163.062 35.6074 163.062 35.5078 163.109 35.3789L163.566 34.0078C163.613 33.8789 163.66 33.8086 163.707 33.7969C163.754 33.7852 163.807 33.7793 163.865 33.7793C163.924 33.7793 164.029 33.8086 164.182 33.8672C164.334 33.9258 164.521 33.9844 164.744 34.043C164.967 34.1133 165.213 34.1777 165.482 34.2363C165.752 34.2949 166.033 34.3242 166.326 34.3242C166.854 34.3242 167.34 34.207 167.785 33.9727C168.23 33.7383 168.611 33.3984 168.928 32.9531C169.244 32.5078 169.49 31.9688 169.666 31.3359C169.842 30.7148 169.93 30.0059 169.93 29.209C169.93 27.7559 169.766 26.6602 169.438 25.9219C169.121 25.1836 168.611 24.8145 167.908 24.8145C167.709 24.8145 167.533 24.8438 167.381 24.9023C167.229 24.9609 167.088 25.0254 166.959 25.0957C166.912 25.1191 166.848 25.1426 166.766 25.166C166.695 25.1895 166.613 25.1543 166.52 25.0605L165.922 24.4453Z" fill="black"/>
</svg>
