<svg width="40" height="40" viewBox="0 0 40 40" fill="none" xmlns="http://www.w3.org/2000/svg">
<circle cx="20" cy="20" r="19.25" stroke="#242424" stroke-width="1.5"/>
<path d="M19.3219 20.0426C20.9763 20.0426 22.4087 19.4492 23.5794 18.2785C24.7498 17.108 25.3434 15.6757 25.3434 14.0211C25.3434 12.3671 24.75 10.9346 23.5792 9.76372C22.4085 8.59338 20.9761 8 19.3219 8C17.6672 8 16.235 8.59338 15.0645 9.76391C13.8939 10.9345 13.3004 12.3669 13.3004 14.0211C13.3004 15.6757 13.8939 17.1081 15.0645 18.2787C16.2354 19.449 17.6678 20.0426 19.3219 20.0426ZM16.1005 10.7998C16.9987 9.90162 18.0523 9.46503 19.3219 9.46503C20.5912 9.46503 21.645 9.90162 22.5434 10.7998C23.4415 11.6982 23.8783 12.752 23.8783 14.0211C23.8783 15.2906 23.4415 16.3443 22.5434 17.2426C21.645 18.141 20.5912 18.5776 19.3219 18.5776C18.0527 18.5776 16.9991 18.1408 16.1005 17.2426C15.2022 16.3444 14.7654 15.2906 14.7654 14.0211C14.7654 12.752 15.2022 11.6982 16.1005 10.7998Z" fill="#242424"/>
<path d="M29.8579 27.2238C29.8241 26.7366 29.7558 26.2052 29.6553 25.6441C29.5538 25.0788 29.4232 24.5443 29.2668 24.0559C29.105 23.551 28.8855 23.0524 28.6137 22.5746C28.332 22.0787 28.0009 21.6469 27.6293 21.2915C27.2408 20.9198 26.7651 20.6209 26.215 20.4029C25.6668 20.186 25.0593 20.0762 24.4095 20.0762C24.1543 20.0762 23.9075 20.1809 23.4309 20.4912C23.1375 20.6825 22.7944 20.9038 22.4114 21.1485C22.0839 21.3572 21.6402 21.5527 21.0923 21.7297C20.5576 21.9027 20.0148 21.9904 19.4788 21.9904C18.9432 21.9904 18.4004 21.9027 17.8654 21.7297C17.318 21.5528 16.8742 21.3573 16.5472 21.1487C16.1679 20.9063 15.8245 20.685 15.5268 20.491C15.0505 20.1807 14.8037 20.076 14.5485 20.076C13.8985 20.076 13.2912 20.186 12.7432 20.4031C12.1935 20.6207 11.7176 20.9196 11.3287 21.2917C10.9572 21.6473 10.6261 22.0789 10.3445 22.5746C10.0731 23.0524 9.85339 23.5508 9.69165 24.056C9.53544 24.5445 9.40479 25.0788 9.30331 25.6441C9.20261 26.2045 9.13451 26.7361 9.10075 27.2243C9.06757 27.7017 9.05078 28.1986 9.05078 28.7006C9.05078 30.0056 9.46563 31.0621 10.2837 31.8413C11.0916 32.6101 12.1605 33 13.4608 33H25.4984C26.7983 33 27.8672 32.6101 28.6753 31.8413C29.4936 31.0627 29.9084 30.0058 29.9084 28.7004C29.9082 28.1967 29.8912 27.6998 29.8579 27.2238ZM27.6652 30.7798C27.1313 31.2879 26.4225 31.5349 25.4982 31.5349H13.4608C12.5363 31.5349 11.8275 31.2879 11.2938 30.78C10.7703 30.2816 10.5158 29.6013 10.5158 28.7006C10.5158 28.2322 10.5313 27.7696 10.5622 27.3256C10.5923 26.89 10.6539 26.4114 10.7453 25.9029C10.8355 25.4007 10.9503 24.9294 11.0869 24.5027C11.2179 24.0936 11.3966 23.6885 11.6183 23.2983C11.8298 22.9263 12.0732 22.6072 12.3417 22.3501C12.5929 22.1096 12.9095 21.9128 13.2826 21.7651C13.6277 21.6286 14.0154 21.5538 14.4364 21.5425C14.4877 21.5698 14.579 21.6219 14.7271 21.7184C15.0282 21.9147 15.3754 22.1386 15.7591 22.3837C16.1917 22.6595 16.749 22.9086 17.4149 23.1235C18.0956 23.3437 18.7899 23.4554 19.479 23.4554C20.1681 23.4554 20.8626 23.3437 21.543 23.1237C22.2094 22.9084 22.7665 22.6595 23.1997 22.3833C23.5924 22.1323 23.9298 21.9149 24.231 21.7184C24.379 21.6221 24.4704 21.5698 24.5217 21.5425C24.9428 21.5538 25.3306 21.6286 25.6758 21.7651C26.0487 21.9128 26.3653 22.1098 26.6165 22.3501C26.8851 22.607 27.1284 22.9261 27.34 23.2984C27.5618 23.6885 27.7407 24.0938 27.8715 24.5026C28.0083 24.9298 28.1233 25.4009 28.2133 25.9027C28.3045 26.4122 28.3663 26.8909 28.3964 27.3258V27.3262C28.4275 27.7685 28.4432 28.2308 28.4434 28.7006C28.4432 29.6015 28.1887 30.2816 27.6652 30.7798Z" fill="#242424"/>
</svg>
